<mxfile host="app.diagrams.net" modified="2023-04-09T08:04:31.508Z" agent="Mozilla/5.0 (Windows NT 10.0; Win64; x64) AppleWebKit/537.36 (KHTML, like Gecko) Chrome/112.0.0.0 Safari/537.36 Edg/112.0.1722.34" etag="6_pqv1el3tIYXOp6u3j4" version="21.1.5" type="github">
  <diagram name="第 1 页" id="OlGj6F9cdzCkxtsEbur7">
    <mxGraphModel dx="746" dy="700" grid="1" gridSize="10" guides="1" tooltips="1" connect="1" arrows="1" fold="1" page="1" pageScale="1" pageWidth="827" pageHeight="1169" math="0" shadow="0">
      <root>
        <mxCell id="0" />
        <mxCell id="1" parent="0" />
        <mxCell id="CHzE7fIm8AOTOQcs7R2c-1" value="User" style="swimlane;fontStyle=1;align=center;verticalAlign=top;childLayout=stackLayout;horizontal=1;startSize=26;horizontalStack=0;resizeParent=1;resizeParentMax=0;resizeLast=0;collapsible=1;marginBottom=0;whiteSpace=wrap;html=1;" vertex="1" parent="1">
          <mxGeometry x="334" y="285" width="160" height="160" as="geometry" />
        </mxCell>
        <mxCell id="CHzE7fIm8AOTOQcs7R2c-2" value="- name: str&lt;br style=&quot;border-color: var(--border-color);&quot;&gt;- sysId: int&lt;br style=&quot;border-color: var(--border-color);&quot;&gt;- isLogin: boolean&lt;br style=&quot;border-color: var(--border-color);&quot;&gt;- code: int&lt;br style=&quot;border-color: var(--border-color);&quot;&gt;- email: str&lt;br&gt;- phone: int" style="text;strokeColor=none;fillColor=none;align=left;verticalAlign=top;spacingLeft=4;spacingRight=4;overflow=hidden;rotatable=0;points=[[0,0.5],[1,0.5]];portConstraint=eastwest;whiteSpace=wrap;html=1;" vertex="1" parent="CHzE7fIm8AOTOQcs7R2c-1">
          <mxGeometry y="26" width="160" height="94" as="geometry" />
        </mxCell>
        <mxCell id="CHzE7fIm8AOTOQcs7R2c-3" value="" style="line;strokeWidth=1;fillColor=none;align=left;verticalAlign=middle;spacingTop=-1;spacingLeft=3;spacingRight=3;rotatable=0;labelPosition=right;points=[];portConstraint=eastwest;strokeColor=inherit;" vertex="1" parent="CHzE7fIm8AOTOQcs7R2c-1">
          <mxGeometry y="120" width="160" height="8" as="geometry" />
        </mxCell>
        <mxCell id="CHzE7fIm8AOTOQcs7R2c-4" value="+ modifyInfo(): void&lt;br&gt;" style="text;strokeColor=none;fillColor=none;align=left;verticalAlign=top;spacingLeft=4;spacingRight=4;overflow=hidden;rotatable=0;points=[[0,0.5],[1,0.5]];portConstraint=eastwest;whiteSpace=wrap;html=1;" vertex="1" parent="CHzE7fIm8AOTOQcs7R2c-1">
          <mxGeometry y="128" width="160" height="32" as="geometry" />
        </mxCell>
        <mxCell id="CHzE7fIm8AOTOQcs7R2c-5" value="&lt;p style=&quot;margin:0px;margin-top:4px;text-align:center;&quot;&gt;&lt;i&gt;&amp;lt;&amp;lt;Interface&amp;gt;&amp;gt;&lt;/i&gt;&lt;br&gt;&lt;b&gt;LoginSys&lt;/b&gt;&lt;/p&gt;&lt;hr size=&quot;1&quot;&gt;&lt;p style=&quot;margin:0px;margin-left:4px;&quot;&gt;+ login(): void&lt;/p&gt;&lt;p style=&quot;margin:0px;margin-left:4px;&quot;&gt;+ register(): void&lt;/p&gt;&lt;p style=&quot;margin:0px;margin-left:4px;&quot;&gt;+ findCodeBack(): void&lt;/p&gt;" style="verticalAlign=top;align=left;overflow=fill;fontSize=12;fontFamily=Helvetica;html=1;whiteSpace=wrap;" vertex="1" parent="1">
          <mxGeometry x="300" y="110" width="190" height="100" as="geometry" />
        </mxCell>
        <mxCell id="CHzE7fIm8AOTOQcs7R2c-6" value="Individual" style="swimlane;fontStyle=1;align=center;verticalAlign=top;childLayout=stackLayout;horizontal=1;startSize=26;horizontalStack=0;resizeParent=1;resizeParentMax=0;resizeLast=0;collapsible=1;marginBottom=0;whiteSpace=wrap;html=1;" vertex="1" parent="1">
          <mxGeometry x="470" y="515" width="170" height="170" as="geometry" />
        </mxCell>
        <mxCell id="CHzE7fIm8AOTOQcs7R2c-7" value="- uID: long&lt;br&gt;- sex: boolean" style="text;strokeColor=none;fillColor=none;align=left;verticalAlign=top;spacingLeft=4;spacingRight=4;overflow=hidden;rotatable=0;points=[[0,0.5],[1,0.5]];portConstraint=eastwest;whiteSpace=wrap;html=1;" vertex="1" parent="CHzE7fIm8AOTOQcs7R2c-6">
          <mxGeometry y="26" width="170" height="44" as="geometry" />
        </mxCell>
        <mxCell id="CHzE7fIm8AOTOQcs7R2c-8" value="" style="line;strokeWidth=1;fillColor=none;align=left;verticalAlign=middle;spacingTop=-1;spacingLeft=3;spacingRight=3;rotatable=0;labelPosition=right;points=[];portConstraint=eastwest;strokeColor=inherit;" vertex="1" parent="CHzE7fIm8AOTOQcs7R2c-6">
          <mxGeometry y="70" width="170" height="8" as="geometry" />
        </mxCell>
        <mxCell id="CHzE7fIm8AOTOQcs7R2c-40" value="ArrangFlight" style="endArrow=None;html=1;endSize=12;startSize=14;startFill=0;edgeStyle=orthogonalEdgeStyle;rounded=0;entryX=0;entryY=0.5;entryDx=0;entryDy=0;" edge="1" parent="CHzE7fIm8AOTOQcs7R2c-6" target="CHzE7fIm8AOTOQcs7R2c-19">
          <mxGeometry relative="1" as="geometry">
            <mxPoint x="170" y="85" as="sourcePoint" />
            <mxPoint x="170" y="225" as="targetPoint" />
          </mxGeometry>
        </mxCell>
        <mxCell id="CHzE7fIm8AOTOQcs7R2c-41" value="1" style="edgeLabel;resizable=0;html=1;align=left;verticalAlign=top;" connectable="0" vertex="1" parent="CHzE7fIm8AOTOQcs7R2c-40">
          <mxGeometry x="-1" relative="1" as="geometry">
            <mxPoint x="100" as="offset" />
          </mxGeometry>
        </mxCell>
        <mxCell id="CHzE7fIm8AOTOQcs7R2c-42" value="1" style="edgeLabel;resizable=0;html=1;align=right;verticalAlign=top;" connectable="0" vertex="1" parent="CHzE7fIm8AOTOQcs7R2c-40">
          <mxGeometry x="1" relative="1" as="geometry">
            <mxPoint x="-120" y="4" as="offset" />
          </mxGeometry>
        </mxCell>
        <mxCell id="CHzE7fIm8AOTOQcs7R2c-9" value="+ searchTicket(int): void&lt;br style=&quot;border-color: var(--border-color);&quot;&gt;+ buyTicket(int): void&lt;br style=&quot;border-color: var(--border-color);&quot;&gt;+ printTicket(int): void&lt;br style=&quot;border-color: var(--border-color);&quot;&gt;+ refundTicket(int): void&lt;br&gt;+ showMyTickets(): void" style="text;strokeColor=none;fillColor=none;align=left;verticalAlign=top;spacingLeft=4;spacingRight=4;overflow=hidden;rotatable=0;points=[[0,0.5],[1,0.5]];portConstraint=eastwest;whiteSpace=wrap;html=1;" vertex="1" parent="CHzE7fIm8AOTOQcs7R2c-6">
          <mxGeometry y="78" width="170" height="92" as="geometry" />
        </mxCell>
        <mxCell id="CHzE7fIm8AOTOQcs7R2c-10" value="Stuff" style="swimlane;fontStyle=1;align=center;verticalAlign=top;childLayout=stackLayout;horizontal=1;startSize=26;horizontalStack=0;resizeParent=1;resizeParentMax=0;resizeLast=0;collapsible=1;marginBottom=0;whiteSpace=wrap;html=1;" vertex="1" parent="1">
          <mxGeometry x="160" y="510" width="190" height="180" as="geometry" />
        </mxCell>
        <mxCell id="CHzE7fIm8AOTOQcs7R2c-11" value="- position: str&lt;br&gt;- sID: int" style="text;strokeColor=none;fillColor=none;align=left;verticalAlign=top;spacingLeft=4;spacingRight=4;overflow=hidden;rotatable=0;points=[[0,0.5],[1,0.5]];portConstraint=eastwest;whiteSpace=wrap;html=1;" vertex="1" parent="CHzE7fIm8AOTOQcs7R2c-10">
          <mxGeometry y="26" width="190" height="44" as="geometry" />
        </mxCell>
        <mxCell id="CHzE7fIm8AOTOQcs7R2c-12" value="" style="line;strokeWidth=1;fillColor=none;align=left;verticalAlign=middle;spacingTop=-1;spacingLeft=3;spacingRight=3;rotatable=0;labelPosition=right;points=[];portConstraint=eastwest;strokeColor=inherit;" vertex="1" parent="CHzE7fIm8AOTOQcs7R2c-10">
          <mxGeometry y="70" width="190" height="8" as="geometry" />
        </mxCell>
        <mxCell id="CHzE7fIm8AOTOQcs7R2c-13" value="+ searchTicket(int): void&lt;br style=&quot;border-color: var(--border-color);&quot;&gt;+ printTicket(int): void&lt;br style=&quot;border-color: var(--border-color);&quot;&gt;+ refundTicket(int): void&lt;br style=&quot;border-color: var(--border-color);&quot;&gt;+ findUser(int): void&lt;br style=&quot;border-color: var(--border-color);&quot;&gt;+ modifyUser(): void&lt;br style=&quot;border-color: var(--border-color);&quot;&gt;+ arrangFlight(): void" style="text;strokeColor=none;fillColor=none;align=left;verticalAlign=top;spacingLeft=4;spacingRight=4;overflow=hidden;rotatable=0;points=[[0,0.5],[1,0.5]];portConstraint=eastwest;whiteSpace=wrap;html=1;" vertex="1" parent="CHzE7fIm8AOTOQcs7R2c-10">
          <mxGeometry y="78" width="190" height="102" as="geometry" />
        </mxCell>
        <mxCell id="CHzE7fIm8AOTOQcs7R2c-14" value="flight" style="swimlane;fontStyle=1;align=center;verticalAlign=top;childLayout=stackLayout;horizontal=1;startSize=26;horizontalStack=0;resizeParent=1;resizeParentMax=0;resizeLast=0;collapsible=1;marginBottom=0;whiteSpace=wrap;html=1;" vertex="1" parent="1">
          <mxGeometry x="160" y="830" width="160" height="98" as="geometry" />
        </mxCell>
        <mxCell id="CHzE7fIm8AOTOQcs7R2c-15" value="- fid: char&lt;br&gt;- start: char&lt;br&gt;- arrival: char&lt;br&gt;- bPort: int" style="text;strokeColor=none;fillColor=none;align=left;verticalAlign=top;spacingLeft=4;spacingRight=4;overflow=hidden;rotatable=0;points=[[0,0.5],[1,0.5]];portConstraint=eastwest;whiteSpace=wrap;html=1;" vertex="1" parent="CHzE7fIm8AOTOQcs7R2c-14">
          <mxGeometry y="26" width="160" height="64" as="geometry" />
        </mxCell>
        <mxCell id="CHzE7fIm8AOTOQcs7R2c-16" value="" style="line;strokeWidth=1;fillColor=none;align=left;verticalAlign=middle;spacingTop=-1;spacingLeft=3;spacingRight=3;rotatable=0;labelPosition=right;points=[];portConstraint=eastwest;strokeColor=inherit;" vertex="1" parent="CHzE7fIm8AOTOQcs7R2c-14">
          <mxGeometry y="90" width="160" height="8" as="geometry" />
        </mxCell>
        <mxCell id="CHzE7fIm8AOTOQcs7R2c-18" value="ticketBoard" style="swimlane;fontStyle=1;align=center;verticalAlign=top;childLayout=stackLayout;horizontal=1;startSize=26;horizontalStack=0;resizeParent=1;resizeParentMax=0;resizeLast=0;collapsible=1;marginBottom=0;whiteSpace=wrap;html=1;" vertex="1" parent="1">
          <mxGeometry x="770" y="557" width="160" height="86" as="geometry" />
        </mxCell>
        <mxCell id="CHzE7fIm8AOTOQcs7R2c-19" value="- field: type" style="text;strokeColor=none;fillColor=none;align=left;verticalAlign=top;spacingLeft=4;spacingRight=4;overflow=hidden;rotatable=0;points=[[0,0.5],[1,0.5]];portConstraint=eastwest;whiteSpace=wrap;html=1;" vertex="1" parent="CHzE7fIm8AOTOQcs7R2c-18">
          <mxGeometry y="26" width="160" height="26" as="geometry" />
        </mxCell>
        <mxCell id="CHzE7fIm8AOTOQcs7R2c-20" value="" style="line;strokeWidth=1;fillColor=none;align=left;verticalAlign=middle;spacingTop=-1;spacingLeft=3;spacingRight=3;rotatable=0;labelPosition=right;points=[];portConstraint=eastwest;strokeColor=inherit;" vertex="1" parent="CHzE7fIm8AOTOQcs7R2c-18">
          <mxGeometry y="52" width="160" height="8" as="geometry" />
        </mxCell>
        <mxCell id="CHzE7fIm8AOTOQcs7R2c-21" value="+ showTickets(): void" style="text;strokeColor=none;fillColor=none;align=left;verticalAlign=top;spacingLeft=4;spacingRight=4;overflow=hidden;rotatable=0;points=[[0,0.5],[1,0.5]];portConstraint=eastwest;whiteSpace=wrap;html=1;" vertex="1" parent="CHzE7fIm8AOTOQcs7R2c-18">
          <mxGeometry y="60" width="160" height="26" as="geometry" />
        </mxCell>
        <mxCell id="CHzE7fIm8AOTOQcs7R2c-22" value="ticket" style="swimlane;fontStyle=0;childLayout=stackLayout;horizontal=1;startSize=26;fillColor=none;horizontalStack=0;resizeParent=1;resizeParentMax=0;resizeLast=0;collapsible=1;marginBottom=0;whiteSpace=wrap;html=1;" vertex="1" parent="1">
          <mxGeometry x="580" y="841" width="140" height="76" as="geometry" />
        </mxCell>
        <mxCell id="CHzE7fIm8AOTOQcs7R2c-23" value="-&amp;nbsp; seatID: int" style="text;strokeColor=none;fillColor=none;align=left;verticalAlign=top;spacingLeft=4;spacingRight=4;overflow=hidden;rotatable=0;points=[[0,0.5],[1,0.5]];portConstraint=eastwest;whiteSpace=wrap;html=1;" vertex="1" parent="CHzE7fIm8AOTOQcs7R2c-22">
          <mxGeometry y="26" width="140" height="24" as="geometry" />
        </mxCell>
        <mxCell id="CHzE7fIm8AOTOQcs7R2c-24" value="-&amp;nbsp; level: int" style="text;strokeColor=none;fillColor=none;align=left;verticalAlign=top;spacingLeft=4;spacingRight=4;overflow=hidden;rotatable=0;points=[[0,0.5],[1,0.5]];portConstraint=eastwest;whiteSpace=wrap;html=1;" vertex="1" parent="CHzE7fIm8AOTOQcs7R2c-22">
          <mxGeometry y="50" width="140" height="26" as="geometry" />
        </mxCell>
        <mxCell id="CHzE7fIm8AOTOQcs7R2c-28" value="" style="endArrow=none;html=1;edgeStyle=orthogonalEdgeStyle;rounded=0;entryX=0.5;entryY=0;entryDx=0;entryDy=0;" edge="1" parent="1" target="CHzE7fIm8AOTOQcs7R2c-10">
          <mxGeometry relative="1" as="geometry">
            <mxPoint x="400" y="450" as="sourcePoint" />
            <mxPoint x="360" y="460" as="targetPoint" />
            <Array as="points">
              <mxPoint x="400" y="450" />
              <mxPoint x="400" y="480" />
              <mxPoint x="255" y="480" />
            </Array>
          </mxGeometry>
        </mxCell>
        <mxCell id="CHzE7fIm8AOTOQcs7R2c-29" value="parent" style="edgeLabel;resizable=0;html=1;align=left;verticalAlign=bottom;" connectable="0" vertex="1" parent="CHzE7fIm8AOTOQcs7R2c-28">
          <mxGeometry x="-1" relative="1" as="geometry">
            <mxPoint y="20" as="offset" />
          </mxGeometry>
        </mxCell>
        <mxCell id="CHzE7fIm8AOTOQcs7R2c-30" value="child" style="edgeLabel;resizable=0;html=1;align=right;verticalAlign=bottom;" connectable="0" vertex="1" parent="CHzE7fIm8AOTOQcs7R2c-28">
          <mxGeometry x="1" relative="1" as="geometry" />
        </mxCell>
        <mxCell id="CHzE7fIm8AOTOQcs7R2c-31" value="" style="endArrow=open;endFill=1;endSize=12;html=1;rounded=0;entryX=0.5;entryY=1;entryDx=0;entryDy=0;exitX=0.5;exitY=0;exitDx=0;exitDy=0;" edge="1" parent="1" source="CHzE7fIm8AOTOQcs7R2c-1" target="CHzE7fIm8AOTOQcs7R2c-5">
          <mxGeometry width="160" relative="1" as="geometry">
            <mxPoint x="410" y="280" as="sourcePoint" />
            <mxPoint x="390" y="250" as="targetPoint" />
          </mxGeometry>
        </mxCell>
        <mxCell id="CHzE7fIm8AOTOQcs7R2c-32" value="" style="endArrow=none;html=1;edgeStyle=orthogonalEdgeStyle;rounded=0;" edge="1" parent="1">
          <mxGeometry relative="1" as="geometry">
            <mxPoint x="400" y="450" as="sourcePoint" />
            <mxPoint x="560" y="510" as="targetPoint" />
            <Array as="points">
              <mxPoint x="400" y="480" />
              <mxPoint x="560" y="480" />
            </Array>
          </mxGeometry>
        </mxCell>
        <mxCell id="CHzE7fIm8AOTOQcs7R2c-34" value="child" style="edgeLabel;resizable=0;html=1;align=right;verticalAlign=bottom;" connectable="0" vertex="1" parent="CHzE7fIm8AOTOQcs7R2c-32">
          <mxGeometry x="1" relative="1" as="geometry" />
        </mxCell>
        <mxCell id="CHzE7fIm8AOTOQcs7R2c-35" value="ArrangFlight" style="endArrow=None;html=1;endSize=12;startSize=14;startFill=0;edgeStyle=orthogonalEdgeStyle;rounded=0;entryX=0.5;entryY=0;entryDx=0;entryDy=0;" edge="1" parent="1" target="CHzE7fIm8AOTOQcs7R2c-14">
          <mxGeometry relative="1" as="geometry">
            <mxPoint x="240" y="690" as="sourcePoint" />
            <mxPoint x="400" y="690" as="targetPoint" />
          </mxGeometry>
        </mxCell>
        <mxCell id="CHzE7fIm8AOTOQcs7R2c-36" value="0..n" style="edgeLabel;resizable=0;html=1;align=left;verticalAlign=top;" connectable="0" vertex="1" parent="CHzE7fIm8AOTOQcs7R2c-35">
          <mxGeometry x="-1" relative="1" as="geometry">
            <mxPoint x="10" y="110" as="offset" />
          </mxGeometry>
        </mxCell>
        <mxCell id="CHzE7fIm8AOTOQcs7R2c-37" value="1" style="edgeLabel;resizable=0;html=1;align=right;verticalAlign=top;" connectable="0" vertex="1" parent="CHzE7fIm8AOTOQcs7R2c-35">
          <mxGeometry x="1" relative="1" as="geometry">
            <mxPoint x="20" y="-140" as="offset" />
          </mxGeometry>
        </mxCell>
        <mxCell id="CHzE7fIm8AOTOQcs7R2c-43" value="SearchFlight" style="endArrow=None;html=1;endSize=12;startSize=14;startFill=0;rounded=0;entryX=1;entryY=0;entryDx=0;entryDy=0;exitX=0.289;exitY=1.039;exitDx=0;exitDy=0;exitPerimeter=0;" edge="1" parent="1" source="CHzE7fIm8AOTOQcs7R2c-9" target="CHzE7fIm8AOTOQcs7R2c-14">
          <mxGeometry relative="1" as="geometry">
            <mxPoint x="480" y="770" as="sourcePoint" />
            <mxPoint x="480" y="910" as="targetPoint" />
          </mxGeometry>
        </mxCell>
        <mxCell id="CHzE7fIm8AOTOQcs7R2c-44" value="0..n" style="edgeLabel;resizable=0;html=1;align=left;verticalAlign=top;" connectable="0" vertex="1" parent="CHzE7fIm8AOTOQcs7R2c-43">
          <mxGeometry x="-1" relative="1" as="geometry">
            <mxPoint x="-189" y="131" as="offset" />
          </mxGeometry>
        </mxCell>
        <mxCell id="CHzE7fIm8AOTOQcs7R2c-45" value="1" style="edgeLabel;resizable=0;html=1;align=right;verticalAlign=top;" connectable="0" vertex="1" parent="CHzE7fIm8AOTOQcs7R2c-43">
          <mxGeometry x="1" relative="1" as="geometry">
            <mxPoint x="170" y="-150" as="offset" />
          </mxGeometry>
        </mxCell>
        <mxCell id="CHzE7fIm8AOTOQcs7R2c-49" value="" style="endArrow=diamondThin;endFill=1;endSize=24;html=1;rounded=0;entryX=0.389;entryY=1.126;entryDx=0;entryDy=0;entryPerimeter=0;exitX=1;exitY=0;exitDx=0;exitDy=0;" edge="1" parent="1" source="CHzE7fIm8AOTOQcs7R2c-22" target="CHzE7fIm8AOTOQcs7R2c-21">
          <mxGeometry width="160" relative="1" as="geometry">
            <mxPoint x="660" y="730" as="sourcePoint" />
            <mxPoint x="820" y="730" as="targetPoint" />
          </mxGeometry>
        </mxCell>
        <mxCell id="CHzE7fIm8AOTOQcs7R2c-50" value="" style="endArrow=diamondThin;endFill=1;endSize=24;html=1;rounded=0;entryX=1;entryY=0.5;entryDx=0;entryDy=0;exitX=0;exitY=0.5;exitDx=0;exitDy=0;" edge="1" parent="1" source="CHzE7fIm8AOTOQcs7R2c-23" target="CHzE7fIm8AOTOQcs7R2c-15">
          <mxGeometry width="160" relative="1" as="geometry">
            <mxPoint x="340" y="890" as="sourcePoint" />
            <mxPoint x="500" y="890" as="targetPoint" />
          </mxGeometry>
        </mxCell>
      </root>
    </mxGraphModel>
  </diagram>
</mxfile>
